<?xml version="1.0" standalone="no"?>
<!DOCTYPE svg PUBLIC "-//W3C//DTD SVG 20010904//EN"
 "http://www.w3.org/TR/2001/REC-SVG-20010904/DTD/svg10.dtd">
<svg version="1.0" xmlns="http://www.w3.org/2000/svg"
 width="180.000000pt" height="180.000000pt" viewBox="0 0 180.000000 180.000000"
 preserveAspectRatio="xMidYMid meet">
<metadata>
Created by potrace 1.14, written by Peter Selinger 2001-2017
</metadata>
<g transform="translate(0.000000,180.000000) scale(0.100000,-0.100000)"
fill="#000000" stroke="none">
<path d="M0 900 l0 -900 900 0 900 0 0 900 0 900 -900 0 -900 0 0 -900z m1350
5 l0 -255 -45 0 -45 0 0 255 0 255 45 0 45 0 0 -255z m-593 209 c59 -34 62
-43 23 -75 l-33 -28 -28 20 c-39 27 -122 28 -157 2 -52 -39 -67 -70 -67 -138
0 -68 15 -99 68 -139 36 -27 118 -26 156 2 l27 20 34 -28 c34 -28 34 -29 16
-48 -71 -79 -245 -72 -330 14 -50 51 -70 102 -71 179 0 60 4 78 31 125 66 116
217 159 331 94z m298 -108 c19 -8 35 -20 35 -25 0 -6 5 -11 10 -11 6 0 10 9
10 20 0 17 7 20 45 20 l45 0 0 -180 0 -180 -45 0 c-42 0 -45 2 -45 27 l0 27
-27 -26 c-107 -100 -284 26 -259 184 10 61 49 116 99 139 51 22 86 24 132 5z"/>
<path d="M953 915 c-13 -9 -28 -33 -34 -54 -29 -96 87 -175 156 -107 45 45 45
107 0 152 -28 28 -88 33 -122 9z"/>
</g>
</svg>
